<svg xmlns="http://www.w3.org/2000/svg" viewBox="0 0 303.93 118.27"><defs><style>.cls-1{fill:#050505;}.cls-2{fill:#212121;}.cls-3{fill:#232323;}.cls-4{fill:#0f0f0f;}.cls-5{fill:#0c0c0c;}</style></defs><g id="Layer_2" data-name="Layer 2"><g id="Layer_1-2" data-name="Layer 1"><path class="cls-1" d="M152,.08q73.7,0,147.39-.08c3.43,0,4.59.57,4.56,4.34-.2,26.12-.16,52.24,0,78.36,0,3.4-.57,4.6-4.46,4.58-29-.19-58.07,0-87.11,0-23.29,0-46.59-.07-69.89-.07q-43.56,0-87.11,0c-17.44,0-34.88-.11-52.32,0-3.14,0-3-1.6-3-3.74Q0,45.6,0,7.74C0,.08,0,.08,7.6.08ZM45.39,83.45c12.71,0,25.41-.08,38.12.06,2.87,0,3.85-.68,3.84-3.71q-.18-36.52,0-73.06c0-3-.86-3.74-3.8-3.73Q45.23,3.19,6.93,3C4.16,3,3.3,3.71,3.31,6.53q.15,36.72,0,73.44c0,2.81.8,3.57,3.59,3.54C19.72,83.37,32.56,83.45,45.39,83.45Zm143.94-50.4c-.82,0-2.4-.21-2.48,1.52-.07,1.36,1.13,1.76,2.4,1.74,1.93,0,3.17,1,3.2,2.86s-1.39,2.92-3.14,3.08c-3.72.33-2.81,1.9-1.11,3.71,1.37,1.45,2.77,2.87,4.23,4.23.94.89,2,2.48,3.41,1.15,1.75-1.63-.22-2.7-1.19-3.56-1.87-1.65-2.56-2.84-.2-4.84,1.83-1.55,1.91-4,.89-6.23A6.06,6.06,0,0,0,189.33,33.05ZM250,34.64a1.37,1.37,0,0,0-1-1.41c-1.17-.38-1.87.39-2.57,1.09-4.57,4.54-9.15,9.09-13.69,13.66-.93.93-2.41,2-.93,3.36s2.49-.23,3.42-1.15q6.61-6.52,13.17-13.12C249.08,36.38,249.9,35.75,250,34.64ZM145.47,43.08h0c0-2.48,0-5,0-7.45,0-1-.28-2.06-1.61-2.11s-1.75.9-1.76,1.95C142,40.31,142,45.16,142,50c0,1.09.44,2.08,1.64,2.12,1.49.05,1.77-1.15,1.79-2.33C145.5,47.55,145.47,45.32,145.47,43.08ZM279.59,50a3.38,3.38,0,0,0-.23-.7c-2.95-5.14-5.9-10.28-8.9-15.38a1.48,1.48,0,0,0-2.25-.51,1.67,1.67,0,0,0-.32,2.34q4.31,7.57,8.71,15.07a1.61,1.61,0,0,0,2.23.74A1.55,1.55,0,0,0,279.59,50Zm-146.78.13a1.06,1.06,0,0,0-.07-.37c-3.08-5.37-6.15-10.76-9.28-16.1a1.41,1.41,0,0,0-2-.3,1.35,1.35,0,0,0-.62,1.91q4.5,7.93,9.12,15.8a1.6,1.6,0,0,0,2,.56C132.66,51.38,132.75,50.78,132.81,50.15Zm125.61-.26c.1.92.28,1.5.93,1.79a1.45,1.45,0,0,0,1.95-.6C262.53,48,265,47.92,267.74,48c1,0,2.08-.4,2.08-1.65a1.67,1.67,0,0,0-1.73-1.64c-2.24-.05-2.53-.88-1.44-2.7a1.65,1.65,0,0,0-.66-2.27,1.15,1.15,0,0,0-1.67.16A63.78,63.78,0,0,0,258.42,49.89ZM167.1,42.63c0,2.22,0,4.45,0,6.67,0,1.22.25,2.41,1.62,2.5s1.8-1.07,1.8-2.28q0-7.05,0-14.1c0-1.19-.3-2.37-1.78-2.3s-1.64,1.27-1.64,2.46Zm-55.49,7.91a1.54,1.54,0,0,0,1,1.14,1.43,1.43,0,0,0,1.93-.65c1.21-2.79,3.46-3.2,6.13-3,1,.07,2.11-.25,2.28-1.48s-.78-1.87-1.83-1.89c-2,0-2.49-.65-1.4-2.4a1.72,1.72,0,0,0-.31-2.36,1.34,1.34,0,0,0-1.7-.22C116.92,40.11,111.52,49.37,111.61,50.54Zm68.67-8.46h0c0,2.48,0,5,0,7.44,0,1,.32,1.83,1.56,1.82a1.67,1.67,0,0,0,1.57-1.66c0-5,0-10.09,0-15.13a1.51,1.51,0,0,0-1.63-1.65c-1.15,0-1.46.82-1.47,1.74C180.26,37.12,180.28,39.6,180.28,42.08Zm28.67.79c0-2.48,0-5,0-7.45,0-1-.17-2.06-1.49-2.17s-1.68.82-1.69,1.91q0,7.26,0,14.52c0,1.08.29,2,1.64,2s1.56-1,1.56-2.09C209,47.34,209,45.1,209,42.87Zm8.2,5.63c-.61,0-1.23,0-1.85,0-1.42,0-3,.07-3,1.85,0,1.55,1.52,1.69,2.8,1.7s2.71,0,4.06,0S222,52,222,50.38c0-1.81-1.56-1.9-3-1.88ZM153.43,52a7.86,7.86,0,0,0,1,0c1.46-.21,3.78.67,3.82-1.7s-2.23-1.67-3.73-1.81a2.3,2.3,0,0,0-.74,0c-1.73.4-4.81-1.16-4.85,1.71S152,51.52,153.43,52Zm64-19c-.87,0-1.74,0-2.61,0-1.15,0-2.47.1-2.44,1.6s1.15,1.72,2.41,1.68c1.62,0,3.23,0,4.84,0,1.27,0,2.32-.44,2.26-1.83s-1.21-1.39-2.23-1.43C218.93,33,218.18,33,217.44,33Zm27.72,15.06h-2.24c-1.2,0-2.41.25-2.51,1.64-.14,1.75,1.31,1.85,2.57,1.89,1.49.06,3,0,4.47,0,1.14,0,2.47-.14,2.52-1.6.07-1.62-1.22-1.94-2.58-1.94ZM236,36.43c1.64-.61,4.75,1.15,4.64-2-.08-2.54-3-1.52-4.6-1.47s-4.71-1.26-4.63,1.78C231.5,37.46,234.41,35.86,236,36.43ZM215.9,44.32c1.2-.23,3.39.44,3.36-2,0-2.06-2-1.71-3.43-1.74s-3.35-.23-3.45,1.75S214.18,44.24,215.9,44.32Z"/><path class="cls-2" d="M115.69,113.9c-1.08.25-1.17.72-1.21,1.23-.1,1.48-.44,2.68-2.34,2.66-1.65,0-2-1.1-2.34-2.36-.8-3.25-1.64-6.48-2.38-9.74-.22-1-.82-2.36.9-2.68a2.11,2.11,0,0,1,2.76,1.78c.17.84.39,1.67.64,2.73,2.13-.91.84-4.09,3.27-4.47,3.22-.5,2.2,2.68,3.43,3.94.18-.09.42-.12.5-.25,1-1.54.76-4.83,3.76-3.59,2.33,1,.46,3.23.21,4.86-.36,2.32-1,4.59-1.56,6.87-.38,1.57-.74,3.51-2.74,3.38-1.75-.12-2.59-1.63-2.51-3.48C116.09,114.5,115.83,114.2,115.69,113.9Z"/><path class="cls-2" d="M152.8,107.08a42.92,42.92,0,0,1,0-5.56c.22-1.59-1.3-3.93,1.58-4.6,4-.94,8.23.42,8.94,3.26a29.72,29.72,0,0,1,.08,13.94c-.66,2.81-7.54,4.79-9.88,3.13-.84-.61-.7-1.52-.71-2.37,0-2.6,0-5.2,0-7.8Zm3.9,0h0c0,1.73,0,3.46,0,5.19,0,1,.17,2.08,1.6,1.92a1.89,1.89,0,0,0,1.88-1.93c0-3.21,0-6.42,0-9.63a1.91,1.91,0,0,0-2.05-2.12c-1.41,0-1.42,1.14-1.45,2.12C156.67,104.11,156.7,105.6,156.7,107.08Z"/><path class="cls-3" d="M139,107.08c0-2.6,0-5.2,0-7.8,0-1.41.3-2.49,2-2.41,1.44.08,2,1,1.8,2.26-.32,2.63.24,3.73,3.43,3.72s4.79,4.86,3.5,10.76c-.64,2.89-2.31,4.45-5.64,3.93-5-.79-5-.67-5-6v-4.46Zm6.94,3h0c0-.86.05-1.73,0-2.59s-.71-1.71-1.72-1.45c-2,.54-1.45,2.36-1.44,3.72s-.81,3.4,1.28,4.19a1.35,1.35,0,0,0,1.84-1.28A22.36,22.36,0,0,0,145.94,110.08Z"/><path class="cls-3" d="M136.26,112.5c-.32,3.68-1.91,5.35-5.11,5.34s-5.11-1.85-5.39-5.32c-.08-1.11-.06-2.22,0-3.33.06-2.41.31-4.89,2.91-5.9a6,6,0,0,1,7.08,1.68,1.38,1.38,0,0,0,.65,1.55v3.76a14.17,14.17,0,0,1-5.14.5c-1,0-1.71.31-1.77,1.42a2,2,0,0,0,.69,2,1.5,1.5,0,0,0,2.26-.46C133.32,111.89,134.81,112.38,136.26,112.5Z"/><path class="cls-2" d="M176.61,112.6c.09,3.63-2,5.15-5.31,5.2s-5-1.87-5.15-5.42c-.06-1.23-.1-2.47,0-3.7.18-4.2,1.9-6,5.49-5.8s5.14,2.08,5.06,6.27a9.11,9.11,0,0,1-.27,1.44c-1.61.07-3.22.17-4.83.22-1,0-1.7.36-1.81,1.42a2,2,0,0,0,.78,2,1.44,1.44,0,0,0,2.21-.57C173.7,111.87,175.13,112.24,176.61,112.6Z"/><path class="cls-3" d="M184.12,108.05c1.41-1,1.27-2.34,1.52-3.5.34-1.6,1.45-1.91,2.81-1.67,1.77.32,1.17,1.6.89,2.63-.85,3.23-1.8,6.43-2.62,9.67-.37,1.43-.76,2.55-2.58,2.58s-2-1.17-2.35-2.36c-.92-3.35-1.78-6.71-2.68-10.06-.25-1-.85-2,.63-2.41a2.11,2.11,0,0,1,2.88,1.58A6.83,6.83,0,0,0,184.12,108.05Z"/><path class="cls-4" d="M41.75,24.21a3.81,3.81,0,0,1,2.69-4c2.3-.73,4.09.08,5.32,2.22,3.32,5.81,6.69,11.59,10,17.39Q66.41,51.22,73,62.66c1.86,3.27,1.51,5.93-1,7.06-3.06,1.4-4.93-.27-6.38-2.77Q54.32,47.32,43,27.69A7.53,7.53,0,0,1,41.75,24.21Z"/><path class="cls-5" d="M35,51.39h6.78c4.11,0,6.34,1.49,6.09,4.28-.32,3.53-2.82,4.21-5.9,4.08s-6,.15-8.94-.07a4.16,4.16,0,0,0-4.62,2.76,54,54,0,0,1-3.14,5.47c-1.39,2.23-3.44,3-5.75,1.75s-2.83-3.53-1.58-5.75C22.51,55.7,27.23,47.55,32,39.43a3.83,3.83,0,0,1,5.46-1.63c2.3,1.23,3,3.23,1.82,5.65S36.61,48.38,35,51.39Z"/></g></g></svg>